<svg width="53" height="12" viewBox="0 0 53 12" fill="none" xmlns="http://www.w3.org/2000/svg">
<path d="M4.89335 1.69872C5.00561 1.35323 5.49439 1.35323 5.60665 1.69872L6.34451 3.96962C6.39471 4.12412 6.53869 4.22873 6.70115 4.22873H9.08891C9.45219 4.22873 9.60323 4.69359 9.30933 4.90712L7.37759 6.31061C7.24616 6.4061 7.19116 6.57536 7.24137 6.72987L7.97923 9.00077C8.09148 9.34626 7.69605 9.63356 7.40216 9.42003L5.47042 8.01654C5.33899 7.92105 5.16101 7.92105 5.02958 8.01654L3.09784 9.42003C2.80395 9.63356 2.40852 9.34626 2.52077 9.00077L3.25863 6.72987C3.30884 6.57536 3.25384 6.4061 3.12241 6.31061L1.19067 4.90712C0.896773 4.69359 1.04781 4.22873 1.41108 4.22873H3.79885C3.96131 4.22873 4.10529 4.12412 4.15549 3.96962L4.89335 1.69872Z" fill="#7A9FEC"/>
<path d="M15.3934 1.69872C15.5056 1.35323 15.9944 1.35323 16.1066 1.69872L16.8445 3.96962C16.8947 4.12412 17.0387 4.22873 17.2012 4.22873H19.5889C19.9522 4.22873 20.1032 4.69359 19.8093 4.90712L17.8776 6.31061C17.7462 6.4061 17.6912 6.57536 17.7414 6.72987L18.4792 9.00077C18.5915 9.34626 18.1961 9.63356 17.9022 9.42003L15.9704 8.01654C15.839 7.92105 15.661 7.92105 15.5296 8.01654L13.5978 9.42003C13.3039 9.63356 12.9085 9.34626 13.0208 9.00077L13.7586 6.72987C13.8088 6.57536 13.7538 6.4061 13.6224 6.31061L11.6907 4.90712C11.3968 4.69359 11.5478 4.22873 11.9111 4.22873H14.2988C14.4613 4.22873 14.6053 4.12412 14.6555 3.96962L15.3934 1.69872Z" fill="#7A9FEC"/>
<path d="M25.8934 1.69872C26.0056 1.35323 26.4944 1.35323 26.6066 1.69872L27.3445 3.96962C27.3947 4.12412 27.5387 4.22873 27.7012 4.22873H30.0889C30.4522 4.22873 30.6032 4.69359 30.3093 4.90712L28.3776 6.31061C28.2462 6.4061 28.1912 6.57536 28.2414 6.72987L28.9792 9.00077C29.0915 9.34626 28.6961 9.63356 28.4022 9.42003L26.4704 8.01654C26.339 7.92105 26.161 7.92105 26.0296 8.01654L24.0978 9.42003C23.8039 9.63356 23.4085 9.34626 23.5208 9.00077L24.2586 6.72987C24.3088 6.57536 24.2538 6.4061 24.1224 6.31061L22.1907 4.90712C21.8968 4.69359 22.0478 4.22873 22.4111 4.22873H24.7988C24.9613 4.22873 25.1053 4.12412 25.1555 3.96962L25.8934 1.69872Z" fill="#7A9FEC"/>
<path d="M36.3934 1.69872C36.5056 1.35323 36.9944 1.35323 37.1066 1.69872L37.8445 3.96962C37.8947 4.12412 38.0387 4.22873 38.2012 4.22873H40.5889C40.9522 4.22873 41.1032 4.69359 40.8093 4.90712L38.8776 6.31061C38.7462 6.4061 38.6912 6.57536 38.7414 6.72987L39.4792 9.00077C39.5915 9.34626 39.1961 9.63356 38.9022 9.42003L36.9704 8.01654C36.839 7.92105 36.661 7.92105 36.5296 8.01654L34.5978 9.42003C34.3039 9.63356 33.9085 9.34626 34.0208 9.00077L34.7586 6.72987C34.8088 6.57536 34.7538 6.4061 34.6224 6.31061L32.6907 4.90712C32.3968 4.69359 32.5478 4.22873 32.9111 4.22873H35.2988C35.4613 4.22873 35.6053 4.12412 35.6555 3.96962L36.3934 1.69872Z" fill="#7A9FEC"/>
<path d="M46.8934 1.69872C47.0056 1.35323 47.4944 1.35323 47.6066 1.69872L48.3445 3.96962C48.3947 4.12412 48.5387 4.22873 48.7012 4.22873H51.0889C51.4522 4.22873 51.6032 4.69359 51.3093 4.90712L49.3776 6.31061C49.2462 6.4061 49.1912 6.57536 49.2414 6.72987L49.9792 9.00077C50.0915 9.34626 49.6961 9.63356 49.4022 9.42003L47.4704 8.01654C47.339 7.92105 47.161 7.92105 47.0296 8.01654L45.0978 9.42003C44.8039 9.63356 44.4085 9.34626 44.5208 9.00077L45.2586 6.72987C45.3088 6.57536 45.2538 6.4061 45.1224 6.31061L43.1907 4.90712C42.8968 4.69359 43.0478 4.22873 43.4111 4.22873H45.7988C45.9613 4.22873 46.1053 4.12412 46.1555 3.96962L46.8934 1.69872Z" fill="#7A9FEC"/>
</svg>
